<?xml version="1.0" encoding="utf-8"?>
<!-- Generator: Adobe Illustrator 20.1.0, SVG Export Plug-In . SVG Version: 6.00 Build 0)  -->
<svg version="1.1" xmlns="http://www.w3.org/2000/svg" xmlns:xlink="http://www.w3.org/1999/xlink" x="0px" y="0px"
	 viewBox="0 0 540.4 598.3" style="enable-background:new 0 0 540.4 598.3;" xml:space="preserve">
<style type="text/css">
	.st0{fill:none;stroke:#FF00AA;stroke-width:7;stroke-miterlimit:10;}
	.st1{fill:#FF00AA;}
	.st2{fill:#54F5E2;}
	.st3{fill:#231F20;}
	.st4{font-family:'OpenSans-Semibold';}
	.st5{font-size:17.1px;}
	.st6{font-family:'OpenSans-Light';}
	.st7{display:none;}
	.st8{display:inline;fill:none;stroke:#F2EB49;stroke-miterlimit:10;}
	.st9{fill:#2C6AA8;}
</style>
<g id="Layer_1">
	<g>
		<g>
			<g>
				<path class="st0" d="M355.9,113c8.7,4.2,17,9,24.9,14.4"/>
				<g>
					<path class="st1" d="M391.2,134.6c-6.2-1.5-14.4-2.6-20.5-1.9l8.6-6.2l2.7-10.3C383.6,122.1,387.6,129.4,391.2,134.6z"/>
				</g>
			</g>
		</g>
	</g>
	<g>
		<g>
			<g>
				<path class="st0" d="M474,279.4c1,9.6,1.3,19.2,0.8,28.8"/>
				<g>
					<path class="st1" d="M474.1,320.9c-1.9-6.1-5.3-13.7-9-18.4l9.8,4.1l10.2-3.1C480.8,307.9,476.6,315,474.1,320.9z"/>
				</g>
			</g>
		</g>
	</g>
	<g>
		<g>
			<g>
				<path class="st0" d="M389.8,465.4c-7.8,5.7-15.9,10.8-24.4,15.3"/>
				<g>
					<path class="st1" d="M354.2,486.6c4.2-4.7,9-11.5,11.2-17.2l1.5,10.5l7.9,7.1C368.8,485.6,360.5,485.8,354.2,486.6z"/>
				</g>
			</g>
		</g>
	</g>
	<g>
		<g>
			<g>
				<path class="st0" d="M183.6,485c-8.7-4.1-17.1-8.9-25-14.3"/>
				<g>
					<path class="st1" d="M148.2,463.6c6.2,1.5,14.4,2.6,20.5,1.9l-8.6,6.2l-2.7,10.3C155.8,476.1,151.8,468.8,148.2,463.6z"/>
				</g>
			</g>
		</g>
	</g>
	<g>
		<g>
			<g>
				<path class="st0" d="M66.8,317.8c-1.2-9.6-1.6-19.2-1.4-28.8"/>
				<g>
					<path class="st1" d="M65.7,276.4c2.1,6,5.7,13.5,9.6,18.2l-9.9-3.8l-10.1,3.4C59.4,289.6,63.4,282.3,65.7,276.4z"/>
				</g>
			</g>
		</g>
	</g>
	<g>
		<path class="st2" d="M270.1,8.6c41.8,0,75.6,33.8,75.6,75.6s-33.8,75.6-75.6,75.6s-75.6-33.8-75.6-75.6S228.4,8.6,270.1,8.6
			 M270.1,3.6c-44.4,0-80.6,36.2-80.6,80.6s36.2,80.6,80.6,80.6s80.6-36.2,80.6-80.6S314.6,3.6,270.1,3.6L270.1,3.6z"/>
	</g>
	<text transform="matrix(1 0 0 1 221.3217 56.0597)" class="st3 st4 st5">Understand </text>
	<text transform="matrix(1 0 0 1 213.4364 78.8595)" class="st3 st6 st5">What’s the real </text>
	<text transform="matrix(1 0 0 1 220.6566 101.6593)" class="st3 st6 st5">problem and </text>
	<text transform="matrix(1 0 0 1 227.5918 124.4596)" class="st3 st6 st5">who cares?</text>
	<g>
		<path class="st2" d="M456.1,116c41.8,0,75.6,33.8,75.6,75.6s-33.8,75.6-75.6,75.6s-75.6-33.8-75.6-75.6S414.4,116,456.1,116
			 M456.1,111c-44.4,0-80.6,36.2-80.6,80.6s36.2,80.6,80.6,80.6s80.6-36.2,80.6-80.6S500.6,111,456.1,111L456.1,111z"/>
	</g>
	<g>
		<text transform="matrix(1 0 0 1 428.2812 162.9091)" class="st3 st4 st5">Design</text>
		<text transform="matrix(1 0 0 1 407.0009 185.7093)" class="st3 st6 st5">How can this </text>
		<text transform="matrix(1 0 0 1 411.5614 208.5092)" class="st3 st6 st5">problem be </text>
		<text transform="matrix(1 0 0 1 427.9959 231.3094)" class="st3 st6 st5">solved?</text>
	</g>
	<g>
		<path class="st2" d="M456.1,330.9c41.8,0,75.6,33.8,75.6,75.6s-33.8,75.6-75.6,75.6s-75.6-33.8-75.6-75.6S414.4,330.9,456.1,330.9
			 M456.1,325.9c-44.4,0-80.6,36.2-80.6,80.6s36.2,80.6,80.6,80.6s80.6-36.2,80.6-80.6S500.6,325.9,456.1,325.9L456.1,325.9z"/>
	</g>
	<g>
		<text transform="matrix(1 0 0 1 438.9228 377.3765)" class="st3 st4 st5">Test</text>
		<text transform="matrix(1 0 0 1 408.998 400.1763)" class="st3 st6 st5">The solution </text>
		<text transform="matrix(1 0 0 1 393.6073 422.9761)" class="st3 st6 st5">makes sense for </text>
		<text transform="matrix(1 0 0 1 414.8875 445.776)" class="st3 st6 st5">real users?</text>
	</g>
	<g>
		<text transform="matrix(1 0 0 1 364.1409 340.2911)" class="st3 st6 st5">No</text>
	</g>
	<g>
		<text transform="matrix(1 0 0 1 151.6355 340.2911)" class="st3 st6 st5">No</text>
	</g>
	<g>
		<text transform="matrix(1 0 0 1 362.1286 514.0334)" class="st3 st6 st5">Yes</text>
	</g>
	<g>
		<text transform="matrix(1 0 0 1 16.6028 307.2337)" class="st3 st6 st5">Yes</text>
	</g>
	<g>
		<text transform="matrix(1 0 0 1 39.0538 77.7334)" class="st3 st6 st5">Information</text>
	</g>
	<g>
		<path class="st2" d="M84,330.9c41.8,0,75.6,33.8,75.6,75.6s-33.8,75.6-75.6,75.6S8.4,448.3,8.4,406.5S42.3,330.9,84,330.9
			 M84,325.9c-44.4,0-80.6,36.2-80.6,80.6s36.2,80.6,80.6,80.6s80.6-36.2,80.6-80.6S128.5,325.9,84,325.9L84,325.9z"/>
	</g>
	<g>
		<text transform="matrix(1 0 0 1 42.0175 377.3766)" class="st3 st4 st5">Validate &amp; </text>
		<text transform="matrix(1 0 0 1 48.1923 400.1764)" class="st3 st4 st5">Measure </text>
		<text transform="matrix(1 0 0 1 35.9375 422.9762)" class="st3 st6 st5">After launch, </text>
		<text transform="matrix(1 0 0 1 40.5928 445.776)" class="st3 st6 st5">did it work?</text>
	</g>
	<g>
		<path class="st2" d="M270.1,438.4c41.8,0,75.6,33.8,75.6,75.6c0,41.8-33.8,75.6-75.6,75.6s-75.6-33.8-75.6-75.6
			C194.5,472.2,228.4,438.4,270.1,438.4 M270.1,433.4c-44.4,0-80.6,36.2-80.6,80.6s36.2,80.6,80.6,80.6s80.6-36.2,80.6-80.6
			S314.6,433.4,270.1,433.4L270.1,433.4z"/>
	</g>
	<text transform="matrix(1 0 0 1 241.0233 519.937)" class="st3 st4 st5">Build it</text>
	<g>
		<path class="st2" d="M84,116c41.8,0,75.6,33.8,75.6,75.6s-33.8,75.6-75.6,75.6S8.4,233.4,8.4,191.6S42.3,116,84,116 M84,111
			c-44.4,0-80.6,36.2-80.6,80.6s36.2,80.6,80.6,80.6s80.6-36.2,80.6-80.6S128.5,111,84,111L84,111z"/>
	</g>
	<text transform="matrix(1 0 0 1 41.7938 196.9966)" class="st3 st4 st5">Celebrate!</text>
	<g>
		<g>
			<path class="st0" d="M380.9,362.7c-65.5-31.8-110.8-99-110.8-176.7"/>
			<g>
				<path class="st1" d="M270.1,173.3c2.2,6,6,13.4,10,17.9l-10-3.6l-10,3.6C264.1,186.7,267.9,179.3,270.1,173.3z"/>
			</g>
		</g>
	</g>
	<path class="st0" d="M159.4,363.2c65.5-31.8,110.8-99,110.8-176.7"/>
	<g>
		<g>
			<line class="st0" x1="167.6" y1="90.7" x2="4" y2="90.7"/>
			<g>
				<path class="st1" d="M180.3,90.7c-6-2.2-13.4-6-17.9-10l3.6,10l-3.6,10C166.9,96.7,174.3,92.9,180.3,90.7z"/>
			</g>
		</g>
	</g>
	<g id="Layer_3" class="st7">
		<circle class="st8" cx="270.1" cy="299.1" r="214.9"/>
		<rect x="452.9" y="274.1" class="st8" width="55.8" height="50.1"/>
	</g>
	<g id="Layer_2" class="st7">
		<circle class="st8" cx="270.1" cy="299.1" r="214.9"/>
		<circle class="st8" cx="270.1" cy="299.1" r="194.1"/>
		<line class="st8" x1="270.1" y1="533.3" x2="270.1" y2="65"/>
		<line class="st8" x1="460.5" y1="189.2" x2="79.7" y2="409.1"/>
		<line class="st8" x1="79.7" y1="189.2" x2="460.5" y2="409.1"/>
	</g>
</g>
<g id="Layer_2_1_">
	<g>
		<path class="st9" d="M270.1,10.6c40.6,0,73.6,33,73.6,73.6s-33,73.6-73.6,73.6s-73.6-33-73.6-73.6S229.6,10.6,270.1,10.6
			 M270.1,8.6c-41.8,0-75.6,33.8-75.6,75.6s33.8,75.6,75.6,75.6s75.6-33.8,75.6-75.6S311.9,8.6,270.1,8.6L270.1,8.6z"/>
	</g>
	<g>
		<path class="st9" d="M456.1,118c40.6,0,73.6,33,73.6,73.6s-33,73.6-73.6,73.6s-73.6-33-73.6-73.6S415.6,118,456.1,118 M456.1,116
			c-41.8,0-75.6,33.8-75.6,75.6s33.8,75.6,75.6,75.6s75.6-33.8,75.6-75.6S497.9,116,456.1,116L456.1,116z"/>
	</g>
	<g>
		<path class="st9" d="M456.1,332.9c40.6,0,73.6,33,73.6,73.6s-33,73.6-73.6,73.6s-73.6-33-73.6-73.6S415.6,332.9,456.1,332.9
			 M456.1,330.9c-41.8,0-75.6,33.8-75.6,75.6s33.8,75.6,75.6,75.6s75.6-33.8,75.6-75.6S497.9,330.9,456.1,330.9L456.1,330.9z"/>
	</g>
	<g>
		<path class="st9" d="M84,332.9c40.6,0,73.6,33,73.6,73.6s-33,73.6-73.6,73.6s-73.6-33-73.6-73.6S43.5,332.9,84,332.9 M84,330.9
			c-41.8,0-75.6,33.8-75.6,75.6s33.8,75.6,75.6,75.6s75.6-33.8,75.6-75.6S125.8,330.9,84,330.9L84,330.9z"/>
	</g>
	<g>
		<path class="st9" d="M270.1,440.4c40.6,0,73.6,33,73.6,73.6s-33,73.6-73.6,73.6s-73.6-33-73.6-73.6S229.6,440.4,270.1,440.4
			 M270.1,438.4c-41.8,0-75.6,33.8-75.6,75.6s33.8,75.6,75.6,75.6s75.6-33.8,75.6-75.6S311.9,438.4,270.1,438.4L270.1,438.4z"/>
	</g>
	<g>
		<path class="st9" d="M84,118c40.6,0,73.6,33,73.6,73.6s-33,73.6-73.6,73.6s-73.6-33-73.6-73.6S43.5,118,84,118 M84,116
			c-41.8,0-75.6,33.8-75.6,75.6s33.8,75.6,75.6,75.6s75.6-33.8,75.6-75.6S125.8,116,84,116L84,116z"/>
	</g>
</g>
</svg>
