<?xml version="1.0" encoding="utf-8"?>
<!-- Generator: Adobe Illustrator 20.1.0, SVG Export Plug-In . SVG Version: 6.00 Build 0)  -->
<svg version="1.1" xmlns="http://www.w3.org/2000/svg" xmlns:xlink="http://www.w3.org/1999/xlink" x="0px" y="0px"
	 viewBox="0 0 532.3 591.7" style="enable-background:new 0 0 532.3 591.7;" xml:space="preserve">
<style type="text/css">
	.st0{fill:none;stroke:#FF00AA;stroke-width:7;stroke-miterlimit:10;}
	.st1{fill:#FF00AA;}
	.st2{fill:none;stroke:#5BEBDA;stroke-width:5;stroke-miterlimit:10;}
	.st3{fill:#004CBF;}
	.st4{font-family:'OpenSans-Semibold';}
	.st5{font-size:17.1px;}
	.st6{font-family:'OpenSans-Light';}
	.st7{display:none;}
	.st8{display:inline;fill:none;stroke:#F2EB49;stroke-miterlimit:10;}
</style>
<g id="Layer_1">
	<g>
		<g>
			<g>
				<path class="st0" d="M351.9,109.7c8.7,4.2,17,9,24.9,14.4"/>
				<g>
					<path class="st1" d="M387.2,131.3c-6.2-1.5-14.4-2.6-20.5-1.9l8.6-6.2l2.7-10.3C379.6,118.8,383.6,126.1,387.2,131.3z"/>
				</g>
			</g>
		</g>
	</g>
	<g>
		<g>
			<g>
				<path class="st0" d="M470,276.1c1,9.6,1.3,19.2,0.8,28.8"/>
				<g>
					<path class="st1" d="M470.1,317.6c-1.9-6.1-5.3-13.7-9-18.4l9.8,4.1l10.2-3.1C476.8,304.6,472.6,311.7,470.1,317.6z"/>
				</g>
			</g>
		</g>
	</g>
	<g>
		<g>
			<g>
				<path class="st0" d="M385.8,462.1c-7.8,5.7-15.9,10.8-24.4,15.3"/>
				<g>
					<path class="st1" d="M350.2,483.3c4.2-4.7,9-11.5,11.2-17.2l1.5,10.5l7.9,7.1C364.8,482.3,356.5,482.5,350.2,483.3z"/>
				</g>
			</g>
		</g>
	</g>
	<g>
		<g>
			<g>
				<path class="st0" d="M179.6,481.7c-8.7-4.1-17.1-8.9-25-14.3"/>
				<g>
					<path class="st1" d="M144.2,460.3c6.2,1.5,14.4,2.6,20.5,1.9l-8.6,6.2l-2.7,10.3C151.8,472.8,147.8,465.5,144.2,460.3z"/>
				</g>
			</g>
		</g>
	</g>
	<g>
		<g>
			<g>
				<path class="st0" d="M62.8,314.5c-1.2-9.6-1.6-19.2-1.4-28.8"/>
				<g>
					<path class="st1" d="M61.7,273.1c2.1,6,5.7,13.5,9.6,18.2l-9.9-3.8l-10.1,3.4C55.4,286.3,59.4,279,61.7,273.1z"/>
				</g>
			</g>
		</g>
	</g>
	<g>
		<circle class="st2" cx="266.1" cy="80.9" r="75.6"/>
		<g>
			<text transform="matrix(1 0 0 1 217.2884 52.7597)" class="st3 st4 st5">Understand </text>
			<text transform="matrix(1 0 0 1 209.4031 75.5595)" class="st3 st6 st5">What’s the real </text>
			<text transform="matrix(1 0 0 1 216.6233 98.3593)" class="st3 st6 st5">problem and </text>
			<text transform="matrix(1 0 0 1 223.5584 121.1596)" class="st3 st6 st5">who cares?</text>
		</g>
	</g>
	<g>
		<circle class="st2" cx="452.1" cy="188.3" r="75.6"/>
		<g>
			<text transform="matrix(1 0 0 1 424.2478 159.6091)" class="st3 st4 st5">Design</text>
			<text transform="matrix(1 0 0 1 402.9675 182.4093)" class="st3 st6 st5">How can this </text>
			<text transform="matrix(1 0 0 1 407.528 205.2092)" class="st3 st6 st5">problem be </text>
			<text transform="matrix(1 0 0 1 423.9626 228.0094)" class="st3 st6 st5">solved?</text>
		</g>
	</g>
	<g>
		<circle class="st2" cx="452.1" cy="403.2" r="75.6"/>
		<g>
			<text transform="matrix(1 0 0 1 434.8894 374.0765)" class="st3 st4 st5">Test</text>
			<text transform="matrix(1 0 0 1 404.9646 396.8763)" class="st3 st6 st5">The solution </text>
			<text transform="matrix(1 0 0 1 389.5739 419.6761)" class="st3 st6 st5">makes sense for </text>
			<text transform="matrix(1 0 0 1 410.8542 442.476)" class="st3 st6 st5">real users?</text>
		</g>
	</g>
	<g>
		<text transform="matrix(1 0 0 1 360.1075 336.9911)" class="st3 st6 st5">No</text>
	</g>
	<g>
		<text transform="matrix(1 0 0 1 147.6022 336.9911)" class="st3 st6 st5">No</text>
	</g>
	<g>
		<text transform="matrix(1 0 0 1 358.0952 510.7335)" class="st3 st6 st5">Yes</text>
	</g>
	<g>
		<text transform="matrix(1 0 0 1 12.5695 303.9337)" class="st3 st6 st5">Yes</text>
	</g>
	<g>
		<text transform="matrix(1 0 0 1 35.0205 74.4334)" class="st3 st6 st5">Information</text>
	</g>
	<g>
		<circle class="st2" cx="80" cy="403.2" r="75.6"/>
		<g>
			<text transform="matrix(1 0 0 1 37.9842 374.0766)" class="st3 st4 st5">Validate &amp; </text>
			<text transform="matrix(1 0 0 1 44.159 396.8764)" class="st3 st4 st5">Measure </text>
			<text transform="matrix(1 0 0 1 31.9042 419.6762)" class="st3 st6 st5">After launch, </text>
			<text transform="matrix(1 0 0 1 36.5595 442.476)" class="st3 st6 st5">did it work?</text>
		</g>
	</g>
	<g>
		<circle class="st2" cx="266.1" cy="510.7" r="75.6"/>
		<text transform="matrix(1 0 0 1 236.99 516.637)" class="st3 st4 st5">Build it</text>
	</g>
	<g>
		<circle class="st2" cx="80" cy="188.3" r="75.6"/>
		<text transform="matrix(1 0 0 1 37.7605 193.6966)" class="st3 st4 st5">Celebrate!</text>
	</g>
	<g>
		<g>
			<path class="st0" d="M376.9,359.4c-65.5-31.8-110.8-99-110.8-176.7"/>
			<g>
				<path class="st1" d="M266.1,170c2.2,6,6,13.4,10,17.9l-10-3.6l-10,3.6C260.1,183.4,263.9,176,266.1,170z"/>
			</g>
		</g>
	</g>
	<path class="st0" d="M155.4,359.9c65.5-31.8,110.8-99,110.8-176.7"/>
	<g>
		<g>
			<line class="st0" x1="163.6" y1="87.4" x2="0" y2="87.4"/>
			<g>
				<path class="st1" d="M176.3,87.4c-6-2.2-13.4-6-17.9-10l3.6,10l-3.6,10C162.9,93.4,170.3,89.6,176.3,87.4z"/>
			</g>
		</g>
	</g>
</g>
<g id="Layer_3" class="st7">
	<circle class="st8" cx="266.1" cy="295.8" r="214.9"/>
	<rect x="448.9" y="270.8" class="st8" width="55.8" height="50.1"/>
</g>
<g id="Layer_2" class="st7">
	<circle class="st8" cx="266.1" cy="295.8" r="214.9"/>
	<circle class="st8" cx="266.1" cy="295.8" r="194.1"/>
	<line class="st8" x1="266.1" y1="530" x2="266.1" y2="61.7"/>
	<line class="st8" x1="456.5" y1="185.9" x2="75.7" y2="405.8"/>
	<line class="st8" x1="75.7" y1="185.9" x2="456.5" y2="405.8"/>
</g>
</svg>
