<?xml version="1.0" encoding="utf-8"?>
<!-- Generator: Adobe Illustrator 20.1.0, SVG Export Plug-In . SVG Version: 6.00 Build 0)  -->
<svg version="1.1" id="Layer_1" xmlns="http://www.w3.org/2000/svg" xmlns:xlink="http://www.w3.org/1999/xlink" x="0px" y="0px"
	 viewBox="0 0 226 66.3" style="enable-background:new 0 0 226 66.3;" xml:space="preserve">
<style type="text/css">
	.st0{fill:none;stroke:#191919;stroke-width:0.5;stroke-miterlimit:10;}
	.st1{fill:#60F4F7;stroke:#191919;stroke-width:0.5;stroke-miterlimit:10;}
	.st2{fill:#FF00AA;stroke:#191919;stroke-width:0.5;stroke-miterlimit:10;}
	.st3{fill:#B0FCE8;stroke:#191919;stroke-width:0.5;stroke-miterlimit:10;}
	.st4{fill:#5BEBDA;stroke:#191919;stroke-width:0.5;stroke-miterlimit:10;}
	.st5{fill:#CCECFC;stroke:#191919;stroke-width:0.5;stroke-miterlimit:10;}
	.st6{fill:none;stroke:#5BEBDA;stroke-width:5;stroke-miterlimit:10;}
	.st7{enable-background:new    ;}
	.st8{fill:#231F20;}
	.st9{fill:none;stroke:#FF00AA;stroke-width:7;stroke-miterlimit:10;}
	.st10{fill:#FF00AA;}
	.st11{fill:none;stroke:#FF00AA;stroke-width:0.75;stroke-miterlimit:10;}
	.st12{fill:none;stroke:#14BBBF;stroke-width:0.75;stroke-miterlimit:10;}
	.st13{fill:none;stroke:#14BBBF;stroke-width:0.5;stroke-miterlimit:10;}
	.st14{fill:none;stroke:#FF00AA;stroke-width:0.5;stroke-miterlimit:10;}
</style>
<polygon class="st0" points="67.2,237.5 112.4,281.4 157.6,237.5 "/>
<polygon class="st0" points="112.4,281.5 112.4,281.4 112.4,281.4 112.4,281.4 "/>
<polygon class="st0" points="210.9,237.5 157.6,237.5 112.4,281.4 112.4,281.4 "/>
<polygon class="st0" points="112.4,281.4 67.2,237.5 13.9,237.5 "/>
<polygon class="st1" points="61.6,-100 112.4,-50.6 163.2,-100 "/>
<polygon class="st0" points="112.4,211.2 112.4,211.2 112.4,211.1 "/>
<polygon class="st2" points="217.9,-90.6 164.6,-90.6 119.4,-46.6 119.4,-46.6 "/>
<polygon class="st3" points="105.4,-46.6 60.2,-90.6 6.9,-90.6 "/>
<polygon class="st4" points="70.2,96.9 115.4,140.9 160.6,96.9 "/>
<polygon class="st4" points="115.4,140.9 115.4,140.9 115.4,140.9 "/>
<polygon class="st2" points="214.8,103.9 161.6,103.9 116.3,147.8 116.4,147.8 "/>
<polygon class="st5" points="116.4,147.8 71.1,103.9 17.9,103.9 116.3,147.8 "/>
<circle class="st6" cx="345.2" cy="228.6" r="75.6"/>
<text transform="matrix(1 0 0 1 302.9707 233.9941)" class="st8" style="font-family:'OpenSans-Semibold'; font-size:17.1px;">Celebrate!</text>
<g>
	<line class="st9" x1="428.8" y1="127.7" x2="265.2" y2="127.7"/>
	<g>
		<path class="st10" d="M441.5,127.7c-6-2.2-13.4-6-17.9-10l3.6,10l-3.6,10C428.1,133.7,435.5,129.9,441.5,127.7z"/>
	</g>
</g>
<polygon class="st0" points="13.9,12.7 210.9,12.7 112.4,56.7 "/>
<line class="st11" x1="170.1" y1="0.6" x2="103" y2="65.8"/>
<line class="st12" x1="121.8" y1="65.8" x2="54.7" y2="0.6"/>
<line class="st12" x1="339.7" y1="65.8" x2="272.6" y2="0.6"/>
<polygon class="st13" points="231.8,12.7 428.8,12.7 330.3,56.7 "/>
<line class="st14" x1="388" y1="0.6" x2="320.9" y2="65.8"/>
<line class="st14" x1="339.7" y1="65.8" x2="272.6" y2="0.6"/>
<polygon class="st0" points="13.9,99.9 210.9,99.9 112.4,143.9 "/>
<line class="st0" x1="170.1" y1="87.8" x2="103" y2="153"/>
<line class="st0" x1="121.8" y1="153" x2="54.7" y2="87.8"/>
</svg>
